<?xml version="1.0" standalone="no"?><!DOCTYPE svg PUBLIC "-//W3C//DTD SVG 1.1//EN" "http://www.w3.org/Graphics/SVG/1.1/DTD/svg11.dtd"><svg t="1558965749288" class="icon" style="" viewBox="0 0 1252 1024" version="1.1" xmlns="http://www.w3.org/2000/svg" p-id="2021" xmlns:xlink="http://www.w3.org/1999/xlink" width="39.125" height="32"><defs><style type="text/css"></style></defs><path d="M606.50829237 662.50820207l48.98148204-0.74780885-1.12171365-7.85199338c-0.37390478-3.36514022-4.48685316-34.52384389 0.74780886-77.14895028 4.86075795-40.00777575 18.19668319-99.08467777 56.70884052-153.92399649 54.2161448-77.14895028 143.95321147-130.61728622 266.71850357-159.5325633l-92.72830212 146.57054211 41.50339348 26.29794571L1069.15272562 212.20261606 827.23655003 81.21142579l-23.43134521 42.99901118 166.88601696 90.48487554C833.59292497 245.97865109 733.01262947 306.80044069 671.44303103 395.04188964c-87.86754416 126.13043234-66.05645161 260.36212792-66.0564516 261.48384156L606.50829237 662.50820207z" p-id="2022"></path><path d="M981.90835466 763.08849756c0 7.85199338-7.10418453 14.08373411-15.57935184 14.08373411l-623.17407454 0c-8.47516731 0-15.57935182-6.35637565-15.57935183-14.0837341L327.57557718 282.99519141c0-7.85199338 7.10418453-14.08373411 15.57935183-14.08373411l153.17618762 1e-8 0-45.99024663L343.15492901 222.92120996c-34.14993909 0-61.94350325 27.04575458-61.94350325 60.07398073l0 479.59476788c0 33.40213024 27.79356342 60.07398073 61.94350324 60.07398072l623.17407455 0c34.14993909 0 61.94350325-27.04575458 61.94350324-60.07398072L1028.27250607 590.59391382l-45.99024662-1e-8 0 172.49458375L981.90835466 763.08849756z" p-id="2023"></path></svg>